# AST/ASF file generated using VICON BodyLanguage
# -----------------------------------------------
:version 1.10
:name VICON
:units
  mass 1.0
  length 0.45
  angle deg
:documentation
   .ast/.asf automatically generated from VICON data using
   VICON BodyBuilder and BodyLanguage model FoxedUp or BRILLIANT.MOD
:root
   order TX TY TZ RX RY RZ
   axis XYZ
   position 0 0 0  
   orientation 0 0 0 
:bonedata
  begin
     id 1 
     name lhipjoint
     direction 0.610259 -0.730986 0.305356 
     length 2.50941 
     axis 0 0 0  XYZ
  end
  begin
     id 2 
     name lfemur
     direction 0.34202 -0.939693 0  
     length 7.48822  
     axis 0 0 20  XYZ
    dof rx ry rz
    limits (-160.0 20.0)
           (-70.0 70.0)
           (-60.0 70.0)
  end
  begin
     id 3 
     name ltibia
     direction 0.34202 -0.939693 0   
     length 7.60141   
     axis 0 0 20   XYZ
    dof rx
    limits (-10.0 170.0)
  end
  begin
     id 4 
     name lfoot
     direction 0.0673488 -0.185039 0.980421   
     length 2.04049   
     axis -90 7.62852e-016 20   XYZ
    dof rx rz
    limits (-45.0 90.0)
           (-70.0 20.0)
  end
  begin
     id 5 
     name ltoes
     direction 1.5356e-011 -4.21729e-011 1   
     length 1.02897   
     axis -90 7.62852e-016 20   XYZ
    dof rx
    limits (-90.0 20.0)
  end
  begin
     id 6 
     name rhipjoint
     direction -0.57612 -0.754205 0.315056   
     length 2.43216  
     axis 0 0 0  XYZ 
  end
  begin
     id 7 
     name rfemur
     direction -0.34202 -0.939693 0   
     length 7.42799   
     axis 0 0 -20   XYZ
    dof rx ry rz
    limits (-160.0 20.0)
           (-70.0 70.0)
           (-70.0 60.0)
  end
  begin
     id 8 
     name rtibia
     direction -0.34202 -0.939693 0   
     length 7.69484   
     axis 0 0 -20   XYZ
    dof rx
    limits (-10.0 170.0)
 end
 begin
     id 9 
     name rfoot
     direction -0.111837 -0.30727 0.945028   
     length 2.15769  
     axis -90 -7.62852e-016 -20   XYZ
    dof rx rz
    limits (-45.0 90.0)
           (-20.0 70.0)
  end
  begin
     id 10 
     name rtoes
     direction -1.53539e-011 -4.21878e-011 1   
     length 1.07391   
     axis -90 -7.62852e-016 -20   XYZ
    dof rx
    limits (-90.0 20.0)
  end
  begin
     id 11 
     name lowerback
     direction 0.00552624 0.990109 -0.140195   
     length 2.12403   
     axis 0 0 0   XYZ
    dof rx ry rz
    limits (-20.0 45.0)
           (-30.0 30.0)
           (-30.0 30.0)
  end
  begin
     id 12 
     name upperback
     direction 0.00361898 0.999976 -0.00584723   
     length 2.13232   
     axis 0 0 0   XYZ
    dof rx ry rz
    limits (-20.0 45.0)
           (-30.0 30.0)
           (-30.0 30.0)
  end
  begin
     id 13 
     name thorax
     direction -0.000331275 0.998253 0.0590847   
     length 2.17688   
     axis 0 0 0   XYZ
    dof rx ry rz
    limits (-20.0 45.0)
           (-30.0 30.0)
           (-30.0 30.0)
  end
  begin
     id 14 
     name lowerneck
     direction -0.0561561 0.979832 0.19177   
     length 1.64159   
     axis 0 0 0   XYZ
    dof rx ry rz
    limits (-20.0 45.0)
           (-30.0 30.0)
           (-30.0 30.0)
  end
  begin
     id 15 
     name upperneck
     direction 0.0827153 0.979385 -0.184293   
     length 1.68939   
     axis 0 0 0   XYZ
    dof rx ry rz
    limits (-20.0 45.0)
           (-30.0 30.0)
           (-30.0 30.0)
  end
  begin
     id 16
     name head
     direction 0.0278583 0.995936 -0.0856488  
     length 1.70207  
     axis 0 0 0   XYZ
    dof rx ry rz
    limits (-20.0 45.0)
           (-30.0 30.0)
           (-30.0 30.0)
  end
  begin
     id 17 
     name lclavicle
     direction 0.950993 0.301131 -0.0702275  
     length 3.41652  
     axis 0 0 0   XYZ
    dof ry rz
    limits (-20.0 10.0)
           (0.0 20.0)
  end
  begin
     id 18 
     name lhumerus
     direction 1 -4.48981e-011 -3.9662e-029   
     length 5.32955   
     axis 180 -30 -90   XYZ
    dof rx ry rz
    limits (-60.0 90.0)
           (-90.0 90.0)
           (-90.0 90.0)
  end
  begin
     id 19
     name lradius
     direction 1 -4.48925e-011 -9.0549e-027   
     length 3.69232   
     axis 180 -30 -90   XYZ
    dof rx
    limits (-10.0 170.0)
  end
  begin
     id 20
     name lwrist
     direction 1 -4.49007e-011 -1.49005e-026   
     length 1.84616   
     axis 9.0955e-015 90 90   XYZ
    dof ry
    limits (-180.0 0.0)
 end
  begin
     id 21 
     name lhand
     direction 1 -4.49016e-011 -2.98023e-026   
     length 0.536598   
     axis 1.90115e-014 90 90   XYZ
    dof rx rz
    limits (-90.0 90.0)
           (-45.0 45.0)
  end
  begin
     id 22 
     name lfingers
     direction 1 -4.48924e-011 -5.9578e-026   
     length 0.432619   
     axis 3.80223e-014 90 90   XYZ
    dof rx
    limits (0.0 90.0)
  end
  begin
     id 23
     name lthumb
     direction 0.707107 -6.34947e-011 0.707107   
     length 0.621157   
     axis -90 45 -3.84942e-014   XYZ
    dof rx rz
    limits (-45.0 45.0)
           (-45.0 45.0)
  end
  begin
     id 24 
     name rclavicle
     direction -0.955495 0.276497 -0.102848   
     length 3.36357  
     axis 0 0 0   XYZ 
    dof ry rz
    limits (-10.0 20.0)
           (-20.0 0.0)
  end
  begin
     id 25 
     name rhumerus
     direction -1 -4.48961e-011 3.30983e-027  
     length 5.23431   
     axis 180 30 90   XYZ
    dof rx ry rz
    limits (-90.0 60.0)
           (-90.0 90.0)
           (-90.0 90.0)
  end
  begin
     id 26 
     name rradius
     direction -1 -4.48965e-011 -6.63263e-027   
     length 3.55301   
     axis 180 30 90   XYZ
    dof rx
    limits (-10.0 170.0)
  end
  begin
     id 27 
     name rwrist
     direction -1 -4.48942e-011 -1.48958e-026   
     length 1.77651   
     axis 9.0955e-015 -90 -90   XYZ
    dof ry
    limits (-180.0 0.0)
  end
  begin
     id 28
     name rhand
     direction -1 -4.48977e-011 -2.97966e-026   
     length 0.772522   
     axis 1.90115e-014 -90 -90   XYZ
    dof rx rz
    limits (-90.0 90.0)
           (-45.0 45.0)
  end
  begin
     id 29
     name rfingers
     direction -1 -4.49135e-011 -5.96389e-026   
     length 0.622827   
     axis 3.80223e-014 -90 -90   XYZ
    dof rx
    limits (0.0 90.0)
  end
  begin
     id 30
     name rthumb
     direction -0.707107 -6.34969e-011 0.707107   
     length 0.894259   
     axis -90 -45 3.84942e-014   XYZ
    dof rx rz
    limits (-45.0 45.0)
           (-45.0 45.0)
  end
:hierarchy
  begin
    root lhipjoint rhipjoint lowerback
    lhipjoint lfemur
    lfemur ltibia
    ltibia lfoot
    lfoot ltoes
    rhipjoint rfemur
    rfemur rtibia
    rtibia rfoot
    rfoot rtoes
    lowerback upperback
    upperback thorax
    thorax lowerneck lclavicle rclavicle
    lowerneck upperneck
    upperneck head
    lclavicle lhumerus
    lhumerus lradius
    lradius lwrist
    lwrist lhand lthumb
    lhand lfingers
    rclavicle rhumerus
    rhumerus rradius
    rradius rwrist
    rwrist rhand rthumb
    rhand rfingers
  end

#!OML:ASF F:\VICON\USERDATA\INSTALL\rory3\rory3.ASF
:FULLY-SPECIFIED
:DEGREES
16
root -13.0004 17.5872 -9.49424 0.0617032 2.64929 6.28194
lowerback 10.6662 -1.16022 -8.41503
upperback 0.730611 -2.54012 0.124893
thorax -4.85163 -1.07231 5.24081
lowerneck -24.5328 -5.64055 -12.465
upperneck 26.9564 -6.16905 9.39008
head 14.0156 -2.68273 4.70498
rclavicle 2.29596e-014 2.78299e-014
rhumerus -42.0014 -21.0936 -72.7944
rradius 28.9367
rwrist 5.65968
rhand -15.0341 9.1681
rfingers 7.12502
rthumb 11.1319 -20.5166
lclavicle 2.29596e-014 2.78299e-014
lhumerus -22.8459 -5.49019 88.7414
lradius 33.391
lwrist -6.87402
lhand -17.6697 25.8984
lfingers 7.12502
lthumb 8.58906 55.7037
rfemur -28.3478 -2.61702 15.9465
rtibia 25.9875
rfoot -1.94855 -3.2438
rtoes 1.62394
lfemur 25.3201 -6.30802 -30.3869
ltibia -3.18055e-015
lfoot 3.29667 -14.7636
ltoes -8.10677
17
root -13.0165 17.6103 -9.30976 0.0152969 2.57675 5.60153
lowerback 10.6997 -1.16527 -7.65287
upperback 0.655922 -2.45326 0.292466
thorax -4.98577 -1.03634 4.98036
lowerneck -24.5439 -5.62758 -12.356
upperneck 27.1288 -6.16847 9.27754
head 14.0828 -2.68837 4.64638
rclavicle 9.93923e-017 9.93923e-015
rhumerus -42.346 -21.1366 -72.6186
rradius 28.8941
rwrist 5.43163
rhand -14.9933 9.01477
rfingers 7.12502
rthumb 11.1712 -20.6678
lclavicle 9.93923e-017 9.93923e-015
lhumerus -23.3294 -5.27543 88.8616
lradius 33.3426
lwrist -7.03762
lhand -18.0384 25.5928
lfingers 7.12502
lthumb 8.23327 55.4123
rfemur -27.9978 -2.64749 16.8262
rtibia 26.2425
rfoot -0.943378 -2.51742
rtoes 4.07955
lfemur 25.8375 -6.28703 -29.5727
ltibia -4.45278e-014
lfoot 4.9498 -14.9529
ltoes -11.2063
18
root -13.0297 17.6321 -9.12578 0.0258927 2.36443 5.06629
lowerback 10.5935 -1.13931 -7.02268
upperback 0.629977 -2.32853 0.426218
thorax -4.98951 -0.986947 4.74565
lowerneck -24.6586 -5.62536 -12.3428
upperneck 27.3423 -6.17168 9.28033
head 14.199 -2.68824 4.65348
rclavicle -8.10048e-015 -4.37326e-015
rhumerus -42.5818 -21.819 -72.1315
rradius 28.6365
rwrist 6.06629
rhand -14.7738 9.00667
rfingers 7.12502
rthumb 11.383 -20.6644
lclavicle -8.10048e-015 -4.37326e-015
lhumerus -23.6075 -4.94475 88.9534
lradius 33.0854
lwrist -7.17625
lhand -18.5477 25.1827
lfingers 7.12502
lthumb 7.74175 55.021
rfemur -27.6649 -2.72465 17.5885
rtibia 26.4662
rfoot -0.495156 -2.34185
rtoes 4.00488
lfemur 26.2261 -6.13666 -28.8987
ltibia -1.90833e-014
lfoot 6.78256 -14.8315
ltoes -13.6277
19
root -13.0418 17.6517 -8.94373 0.0266822 2.13845 4.67803
lowerback 10.4742 -1.12755 -6.52695
upperback 0.624034 -2.24104 0.508391
thorax -4.95533 -0.955417 4.53615
lowerneck -24.6986 -5.61204 -12.4219
upperneck 27.4534 -6.1658 9.40903
head 14.2635 -2.67734 4.72747
rclavicle -7.40473e-015 1.15295e-014
rhumerus -42.7016 -22.6625 -71.6667
rradius 28.2519
rwrist 6.6786
rhand -14.8134 9.04307
rfingers 7.12502
rthumb 11.3447 -20.6301
lclavicle -7.40473e-015 1.15295e-014
lhumerus -23.9348 -4.423 88.9598
lradius 32.7844
lwrist -7.25011
lhand -18.3536 25.1204
lfingers 7.12502
lthumb 7.92909 54.9517
rfemur -27.2888 -2.70001 18.1438
rtibia 26.715
rfoot -0.385436 -2.58411
rtoes 3.90078
lfemur 23.8564 -5.97973 -28.3758
ltibia 5.34935
lfoot 6.61968 -14.6529
ltoes -11.9925
20
root -13.0588 17.6688 -8.76301 0.0064369 1.87555 4.22471
lowerback 10.4297 -1.08036 -6.03024
upperback 0.586908 -2.11305 0.603142
thorax -4.99909 -0.900038 4.33737
lowerneck -24.6095 -5.60613 -12.422
upperneck 27.4587 -6.18197 9.44436
head 14.2509 -2.68171 4.73952
rclavicle 2.46493e-014 -1.98785e-014
rhumerus -42.8295 -22.7731 -71.6648
rradius 28.1352
rwrist 6.46377
rhand -15.0262 8.68698
rfingers 7.12502
rthumb 11.1395 -20.9973
lclavicle 2.46493e-014 -1.98785e-014
lhumerus -24.5024 -3.91256 88.9417
lradius 32.7102
lwrist -7.4427
lhand -18.0021 25.9205
lfingers 7.12502
lthumb 8.2683 55.7387
rfemur -26.8681 -2.5081 18.761
rtibia 26.9874
rfoot -0.31481 -2.60915
rtoes 4.61921
lfemur 21.9719 -5.79106 -27.757
ltibia 9.70181
lfoot 7.35355 -14.652
ltoes -10.0954
21
root -13.0806 17.688 -8.58167 -0.0255069 1.60457 3.81028
lowerback 10.4335 -1.03813 -5.68115
upperback 0.546127 -2.00998 0.741272
thorax -5.06286 -0.852609 4.27276
lowerneck -24.5613 -5.58049 -12.3919
upperneck 27.4711 -6.14442 9.38498
head 14.2369 -2.67189 4.71737
rclavicle 5.86415e-015 1.98785e-015
rhumerus -42.9302 -22.925 -71.4657
rradius 27.8852
rwrist 6.69005
rhand -14.8603 8.59334
rfingers 7.12502
rthumb 11.2995 -21.0823
lclavicle 5.86415e-015 1.98785e-015
lhumerus -25.0897 -3.31169 88.9407
lradius 32.7284
lwrist -7.60559
lhand -17.7352 27.0906
lfingers 7.12502
lthumb 8.52586 56.8985
rfemur -26.3529 -2.07245 19.2992
rtibia 27.2534
rfoot -0.28 -2.30997
rtoes 7.0755
lfemur 20.475 -5.59278 -27.1452
ltibia 13.1541
lfoot 8.95851 -14.8755
ltoes -8.82936
22
root -13.1009 17.7139 -8.40067 -0.119788 1.37018 3.66478
lowerback 10.4625 -0.983178 -5.62557
upperback 0.559775 -1.92751 0.821549
thorax -5.07305 -0.81235 4.31539
lowerneck -24.6603 -5.53707 -12.3386
upperneck 27.6106 -6.06923 9.29579
head 14.3017 -2.64582 4.69161
rclavicle 6.11263e-015 -1.86858e-014
rhumerus -42.9327 -23.1615 -71.2604
rradius 27.5965
rwrist 7.03327
rhand -14.9907 8.51405
rfingers 7.12502
rthumb 11.1737 -21.1684
lclavicle 6.11263e-015 -1.86858e-014
lhumerus -25.4959 -2.62499 88.9211
lradius 32.586
lwrist -7.95016
lhand -17.5776 27.5028
lfingers 7.12502
lthumb 8.67802 57.3044
rfemur -25.7866 -1.89365 19.5847
rtibia 27.5935
rfoot -0.387323 -1.58198
rtoes 9.1351
lfemur 19.1457 -5.44767 -26.8599
ltibia 16.1563
lfoot 11.6218 -14.6559
ltoes -5.56912
